<svg xmlns="http://www.w3.org/2000/svg" width="1024px" height="1024px" viewBox="0 0 1024 1024">
  <path
     d="M 511.980469 512 C 227.050781 512 153.539062 723.417969 134.574219 832.511719 C 128.519531 867.335938 156.632812 896 191.980469 896 L 831.980469 896 C 867.328125 896 895.4375 867.335938 889.390625 832.511719 C 870.417969 723.417969 796.910156 512 511.980469 512 Z M 751.601562 672.730469 C 794.117188 722.886719 814.597656 784.332031 824.179688 832 L 199.777344 832 C 209.359375 784.332031 229.84375 722.886719 272.359375 672.730469 C 316.179688 621.039062 387.714844 576 511.980469 576 C 636.246094 576 707.78125 621.039062 751.601562 672.730469 Z M 751.601562 672.730469 "/>
  <path
     d="m 703.96875,256 c 0,106.03906 -85.96094,192 -192,192 -106.03906,0 -192,-85.96094 -192,-192 0,-106.03906 85.96094,-192 192,-192 106.03906,0 192,85.96094 192,192 z m -64,0 c -0.61957,-70.68869 -57.30859,-128 -128,-128 -70.69141,0 -128,57.30859 -128,128 0,75.83399 57.30859,128 128,128 70.69141,0 128.62061,-57.19323 128,-128 z"/>
</svg>
