<svg xmlns="http://www.w3.org/2000/svg" width="1024px" height="1024px" viewBox="0 0 1024 1024">
  <path
    d="M 480 64 C 497.671875 64 512 78.328125 512 96 L 512 448 L 864 448 C 881.671875 448 896 462.328125 896 480 C 896 497.671875 881.671875 512 864 512 L 512 512 L 512 864 C 512 881.671875 497.671875 896 480 896 C 462.328125 896 448 881.671875 448 864 L 448 512 L 96 512 C 78.328125 512 64 497.671875 64 480 C 64 462.328125 78.328125 448 96 448 L 448 448 L 448 96 C 448 78.328125 462.328125 64 480 64 Z M 480 64 " />
</svg>