<svg xmlns="http://www.w3.org/2000/svg" width="1024px" height="1024px" viewBox="0 0 1024 1024">
  <path
    d="M 5.5,3 A 0.5,0.5 0 0 0 5.1464844,3.1464844 l -4,4 A 0.5,0.5 0 0 0 1,7.5 0.5,0.5 0 0 0 1.1464844,7.8535156 l 4,4.0000004 a 0.5,0.5 0 0 0 0.7070312,0 0.5,0.5 0 0 0 0,-0.707032 L 2.7070313,8 H 13.292969 l -3.146485,3.146484 a 0.5,0.5 0 0 0 0,0.707032 0.5,0.5 0 0 0 0.707032,0 l 4,-4.0000004 A 0.5,0.5 0 0 0 14.982422,7.5429687 0.5,0.5 0 0 0 15,7.5 0.5,0.5 0 0 0 14.982422,7.4101562 0.5,0.5 0 0 0 14.970703,7.3515625 0.5,0.5 0 0 0 14.853516,7.1464844 l -4,-4 a 0.5,0.5 0 0 0 -0.707032,0 0.5,0.5 0 0 0 0,0.7070312 L 13.292969,7 H 2.7070313 L 5.8535156,3.8535156 a 0.5,0.5 0 0 0 0,-0.7070312 A 0.5,0.5 0 0 0 5.5,3 Z"
    transform="matrix(64,0,0,64,0,0)" />
</svg>