<svg width="1024px" height="1024px" viewBox="0 0 1024 1024" xmlns="http://www.w3.org/2000/svg">
  <path
    d="M 289.035156 832.007812 C 235.863281 832.007812 187.734375 818.988281 144.652344 792.953125 C 101.570312 766.636719 67.757812 730.628906 43.21875 684.929688 C 18.675781 639.226562 6.40625 587.988281 6.40625 531.207031 C 6.40625 474.425781 18.675781 423.183594 43.21875 377.480469 C 67.757812 331.78125 101.570312 295.910156 144.652344 269.875 C 187.734375 243.5625 235.863281 230.40625 289.035156 230.40625 C 332.9375 230.40625 373.976562 239.132812 412.148438 256.582031 C 450.324219 273.753906 481.683594 297.433594 506.222656 327.625 C 530.765625 357.816406 545.351562 391.332031 549.988281 428.167969 L 468.183594 428.167969 C 462.457031 405.734375 450.734375 385.238281 433.011719 366.679688 C 415.558594 348.121094 394.152344 333.582031 368.792969 323.054688 C 343.433594 312.53125 316.847656 307.269531 289.035156 307.269531 C 251.40625 307.269531 217.59375 316.824219 187.601562 335.933594 C 157.605469 355.046875 134.019531 381.636719 116.839844 415.707031 C 99.933594 449.773438 91.480469 488.273438 91.480469 531.207031 C 91.480469 574.136719 99.933594 612.636719 116.839844 646.707031 C 134.019531 680.773438 157.605469 707.367188 187.601562 726.476562 C 217.59375 745.585938 251.40625 755.140625 289.035156 755.140625 C 316.847656 755.140625 343.433594 749.882812 368.792969 739.355469 C 394.152344 728.832031 415.558594 714.425781 433.011719 696.148438 C 450.734375 677.585938 462.457031 657.09375 468.183594 634.65625 L 549.988281 634.65625 C 545.351562 671.496094 530.765625 705.011719 506.222656 735.199219 C 481.683594 765.113281 450.324219 788.800781 412.148438 806.246094 C 373.976562 823.417969 332.9375 832.007812 289.035156 832.007812 Z M 289.035156 832.007812 " />
  <path
    d="M 819.230469 832.007812 C 778.878906 832.007812 742.476562 822.308594 710.027344 802.925781 C 677.582031 783.53125 652.082031 756.945312 633.539062 723.15625 C 615 689.082031 605.726562 651.136719 605.726562 609.316406 C 605.726562 567.492188 615 529.683594 633.539062 495.890625 C 652.082031 461.824219 677.582031 435.09375 710.027344 415.707031 C 742.476562 396.316406 778.878906 386.621094 819.230469 386.621094 C 853.320312 386.621094 884.269531 392.578125 912.082031 404.488281 C 940.167969 416.398438 963.207031 433.710938 981.203125 456.421875 C 999.476562 479.132812 1011.609375 506.140625 1017.605469 537.4375 L 937.441406 537.4375 C 931.988281 520.820312 923.257812 506.695312 911.265625 495.058594 C 899.539062 483.425781 885.632812 474.703125 869.542969 468.886719 C 853.726562 462.792969 836.960938 459.746094 819.230469 459.746094 C 794.417969 459.746094 772.058594 466.117188 752.152344 478.855469 C 732.25 491.597656 716.703125 509.324219 705.53125 532.039062 C 694.617188 554.75 689.164062 580.507812 689.164062 609.316406 C 689.164062 637.84375 694.617188 663.460938 705.53125 686.175781 C 716.703125 708.890625 732.25 726.753906 752.152344 739.769531 C 772.058594 752.511719 794.417969 758.886719 819.230469 758.886719 C 836.960938 758.886719 853.726562 755.972656 869.542969 750.15625 C 885.632812 744.0625 899.539062 735.199219 911.265625 723.570312 C 923.257812 711.9375 931.988281 697.8125 937.441406 681.191406 L 1017.605469 681.191406 C 1011.878906 711.660156 999.609375 738.246094 980.792969 760.960938 C 962.253906 783.671875 938.9375 801.261719 910.855469 813.726562 C 883.039062 825.914062 852.5 832.007812 819.230469 832.007812 Z M 819.230469 832.007812 " />
</svg>