<svg width="1024px" height="1024px" viewBox="0 0 1024 1024" xmlns="http://www.w3.org/2000/svg">
  <path
    d="m 4.5,2 a 0.5,0.5 0 0 0 -0.3535156,0.1464844 0.5,0.5 0 0 0 0,0.7070312 l 3.5,3.5 a 0.50005,0.50005 0 0 0 0.7070312,0 l 3.5000004,-3.5 a 0.5,0.5 0 0 0 0,-0.7070312 0.5,0.5 0 0 0 -0.707032,0 L 8,5.2929687 4.8535156,2.1464844 A 0.5,0.5 0 0 0 4.5,2 Z"
    transform="matrix(64,0,0,64,0,0)" />
  <path
    d="m 7.6464844,9.6464844 -3.5,3.4999996 a 0.5,0.5 0 0 0 0,0.707032 0.5,0.5 0 0 0 0.7070312,0 L 8,10.707031 l 3.146484,3.146485 a 0.5,0.5 0 0 0 0.707032,0 0.5,0.5 0 0 0 0,-0.707032 L 8.3535156,9.6464844 a 0.50005,0.50005 0 0 0 -0.7070312,0 z"
    transform="matrix(64,0,0,64,0,0)" />
</svg>