<svg xmlns="http://www.w3.org/2000/svg" width="1024px" height="1024px" viewBox="0 0 1024 1024">
  <path
    d="M 8,1 C 6.4295775,1 5.0061871,1.2376278 3.9316406,1.6484375 3.3943674,1.8538423 2.9431972,2.1017333 2.5976563,2.4140625 2.2521153,2.7263917 2,3.136486 2,3.6035156 2,4.0705452 2.252117,4.480634 2.5976563,4.7929687 2.9431955,5.1053035 3.3943672,5.3512275 3.9316406,5.5566406 5.0061875,5.9674669 6.4295741,6.2050781 8,6.2050781 c 1.5704259,0 2.993813,-0.2376112 4.068359,-0.6484375 C 12.605633,5.3512275 13.056805,5.1053035 13.402344,4.7929687 13.747883,4.480634 14,4.0705452 14,3.6035156 14,3.136486 13.747885,2.7263917 13.402344,2.4140625 13.056803,2.1017333 12.605633,1.8538423 12.068359,1.6484375 10.993813,1.2376278 9.5704225,1 8,1 Z m 0,1 c 1.4671145,0 2.794868,0.2318089 3.710938,0.5820313 0.458034,0.1751111 0.81039,0.381461 1.021484,0.5722656 C 12.943516,3.3451014 13,3.4898872 13,3.6035156 13,3.717144 12.943518,3.8599708 12.732422,4.0507812 12.521326,4.2415917 12.168972,4.4479288 11.710938,4.6230469 10.794869,4.9732831 9.4671111,5.2050781 8,5.2050781 6.5328889,5.2050781 5.2051314,4.9732831 4.2890625,4.6230469 3.831028,4.4479288 3.4786738,4.2415917 3.2675781,4.0507812 3.0564825,3.8599708 3,3.717144 3,3.6035156 3,3.4898872 3.0564842,3.3451014 3.2675781,3.1542969 3.478672,2.9634923 3.8310279,2.7571424 4.2890625,2.5820313 5.2051318,2.2318089 6.5328855,2 8,2 Z"
    transform="matrix(64,0,0,64,0,0)" />
  <path
    d="m 2,12.433594 c 0,0.467019 0.2521236,0.877122 0.5976563,1.189453 0.3455326,0.31233 0.7967149,0.560208 1.3339843,0.765625 C 5.0061794,14.799506 6.4295413,15.037109 8,15.037109 c 1.5704587,0 2.993821,-0.237603 4.068359,-0.648437 0.53727,-0.205417 0.988452,-0.453295 1.333985,-0.765625 C 13.747876,13.310716 14,12.900613 14,12.433594 h -1 c 0,0.113608 -0.05649,0.25841 -0.267578,0.449219 -0.211093,0.190808 -0.563454,0.397144 -1.021484,0.572265 C 10.794876,13.805321 9.4671393,14.037109 8,14.037109 c -1.4671393,0 -2.7948758,-0.231788 -3.7109375,-0.582031 C 3.8310316,13.279957 3.4786708,13.073621 3.2675781,12.882813 3.0564854,12.692004 3,12.547202 3,12.433594 Z"
    transform="matrix(64,0,0,64,0,0)" />
  <path
    d="m 2,9.4902344 c 0,0.4670251 0.25212,0.8771226 0.5976563,1.1894536 0.3455362,0.31233 0.7967142,0.560219 1.3339843,0.765625 C 5.0061809,11.856123 6.429548,12.09375 8,12.09375 c 1.570452,0 2.993819,-0.237627 4.068359,-0.648437 0.537271,-0.205406 0.988448,-0.453295 1.333985,-0.765625 C 13.74788,10.367357 14,9.9572595 14,9.4902344 H 13 C 13,9.6038667 12.943511,9.7466966 12.732422,9.9375 12.521333,10.128303 12.168968,10.334655 11.710938,10.509766 10.794877,10.859987 9.467146,11.09375 8,11.09375 6.532854,11.09375 5.2051227,10.859987 4.2890625,10.509766 3.8310324,10.334655 3.4786672,10.128303 3.2675781,9.9375 3.0564891,9.7466966 3,9.6038667 3,9.4902344 Z"
    transform="matrix(64,0,0,64,0,0)" />
  <path
    d="M 2,6.546875 C 2,7.0139002 2.25212,7.4239978 2.5976563,7.7363281 2.9431925,8.0486585 3.3943705,8.2945948 3.9316406,8.5 5.0061809,8.9108105 6.429548,9.1484375 8,9.1484375 9.570452,9.1484375 10.993819,8.9108105 12.068359,8.5 12.60563,8.2945948 13.056807,8.0486585 13.402344,7.7363281 13.74788,7.4239978 14,7.0139002 14,6.546875 H 13 C 13,6.6605078 12.943511,6.8033372 12.732422,6.9941406 12.521333,7.184944 12.168968,7.3912955 11.710938,7.5664062 10.794877,7.9166278 9.467146,8.1484375 8,8.1484375 6.532854,8.1484375 5.2051227,7.9166278 4.2890625,7.5664062 3.8310324,7.3912955 3.4786671,7.184944 3.2675781,6.9941406 3.0564891,6.8033372 3,6.6605078 3,6.546875 Z"
    transform="matrix(64,0,0,64,0,0)" />
  <path
    d="m 13,3.3925781 v 9.1249999 h 1 V 3.3925781 Z"
    transform="matrix(64,0,0,64,0,0)" />
  <path
    d="M 2,3.3925781 V 12.517578 H 3 V 3.3925781 Z"
    transform="matrix(64,0,0,64,0,0)" />
</svg>