<svg xmlns="http://www.w3.org/2000/svg" width="1024px" height="1024px" viewBox="0 0 1024 1024">
  <path
    d="m 695.91797,263.53125 c 0.42969,-4.95312 0.64844,-9.96484 0.64844,-15.01953 -10e-6,-95.4375 -77.36719,-172.80078 -172.80078,-172.80078 -95.43751,0 -172.80079,77.36328 -172.80079,172.80078 0,5.03516 0.21484,10.03125 0.64063,14.96875 -30.1875,16.66406 -56.12109,40.09766 -75.7539,68.25 l -134.9961,-72.96875 c -15.55079,-8.40234 -34.96484,-2.60937 -43.36719,12.9375 -8.40625,15.54688 -2.61328,34.96094 12.9336,43.36719 l 136.69921,73.88672 c -7.39844,22.23828 -11.40625,46.03125 -11.40625,70.75781 v 64.00391 H 75.714845 c -17.671875,0 -32,14.32812 -32,32 0,17.67187 14.328125,32 32,32 H 235.71484 v 31.99609 c 0,31.30859 4.99609,61.45312 14.23438,89.67578 l -140.32031,81.01172 c -15.30469,8.83984 -20.55078,28.41019 -11.71485,43.71879 8.83594,15.3007 28.41016,20.5429 43.71484,11.7109 l 135.05861,-77.97657 c 50.35546,83.79687 142.14452,139.85937 247.02733,139.85937 104.84375,0 196.60938,-56.0273 246.97656,-139.76952 l 134.91016,77.88672 c 15.3047,8.8398 34.875,3.5976 43.71484,-11.7109 8.83594,-15.3008 3.58985,-34.87504 -11.71484,-43.71098 L 797.44922,709.48828 c 9.25391,-28.2539 14.26562,-58.42968 14.26562,-89.77734 v -32.01172 h 160 c 17.67188,0 31.99996,-14.32812 31.99996,-32 0,-17.67187 -14.32808,-32 -31.99996,-32 h -160 v -63.98828 c 0,-24.72656 -4.0078,-48.51563 -11.40625,-70.75391 L 936.83984,315.0586 c 15.54688,-8.41407 21.32813,-27.83204 12.91797,-43.375 -8.41797,-15.54297 -27.83594,-21.32422 -43.37891,-12.91016 l -134.79687,72.96094 c -19.60938,-28.125 -45.51172,-51.53907 -75.66406,-68.20313 z m -63.67188,-23.39453 c -13.2872,-4.42578 -29.3203,-4.42578 -44.53125,-4.42578 h -128 c -15.24608,0 -35.23293,0 -44.42969,4.40625 -4.27343,-56.17578 51.21283,-99.94068 108.48048,-100.40625 53.97898,-0.43883 112.76563,44.25781 108.48046,100.42578 z M 299.71484,459.71094 c 0,-88.36719 71.63281,-160 160,-160 h 128 c 88.36329,0 160,71.63281 160,160 v 160 c 0,123.71094 -100.28905,223.99999 -224,223.99999 -123.71094,0 -224,-100.28905 -224,-223.99999 z" />
</svg>