<svg xmlns="http://www.w3.org/2000/svg" width="1024px" height="1024px" viewBox="0 0 1024 1024">
  <path
    d="M 374.632812 118.628906 C 387.128906 106.128906 387.128906 85.871094 374.632812 73.371094 C 362.136719 60.875 341.875 60.875 329.378906 73.371094 L 82.75 320 L 329.378906 566.628906 C 341.875 579.125 362.136719 579.125 374.632812 566.628906 C 387.128906 554.128906 387.128906 533.871094 374.632812 521.371094 L 205.257812 352 L 672.007812 352 C 795.71875 352 896.007812 452.289062 896.007812 576 C 896.007812 699.710938 795.71875 800 672.007812 800 L 352.003906 800 C 334.332031 800 320.003906 814.328125 320.003906 832 C 320.003906 849.671875 334.332031 864 352.003906 864 L 672.007812 864 C 831.066406 864 960.007812 735.058594 960.007812 576 C 960.007812 416.941406 831.066406 288 672.007812 288 L 205.257812 288 Z M 374.632812 118.628906 " />
</svg>