<svg xmlns="http://www.w3.org/2000/svg" width="1024px" height="1024px" viewBox="0 0 1024 1024">
  <path
    d="M 8,1 C 4.1399348,1 1,4.1399348 1,8 c 0,3.860065 3.1399348,7 7,7 3.860065,0 7,-3.139935 7,-7 C 15,4.1399348 11.860065,1 8,1 Z m 0,1 c 3.319623,0 6,2.6803772 6,6 0,3.319623 -2.680377,6 -6,6 C 4.6803772,14 2,11.319623 2,8 2,4.6803772 4.6803772,2 8,2 Z"
    transform="matrix(64,0,0,64,0,0)" />
  <path
    d="M 8,4 A 0.60000002,0.60000002 0 0 0 7.4003906,4.5996094 V 8.4003906 A 0.60000002,0.60000002 0 0 0 8,9 0.60000002,0.60000002 0 0 0 8.5996094,8.4003906 V 4.5996094 A 0.60000002,0.60000002 0 0 0 8,4 Z"
    transform="matrix(64,0,0,64,0,0)" />
  <path
    d="m 8.500793,10.700012 c 0,-0.276184 -0.223876,-0.5 -0.5,-0.5 -0.276184,0 -0.5,0.223816 -0.5,0.5 0,0.276123 0.223816,0.5 0.5,0.5 0.276124,0 0.5,-0.223877 0.5,-0.5 z m 0,0"
    transform="matrix(64,0,0,64,0,0)" />
  <path
    d="m 8,10 c -0.3842356,0 -0.6992188,0.314983 -0.6992188,0.699219 0,0.384198 0.3149537,0.701172 0.6992188,0.701172 0.3842286,0 0.7011719,-0.316945 0.7011719,-0.701172 C 8.7011719,10.314954 8.3841991,10 8,10 Z m 0,0.400391 c 0.1680489,0 0.3007813,0.130724 0.3007813,0.298828 C 8.3007813,10.867237 8.1680194,11 8,11 7.8318971,11 7.7011719,10.867266 7.7011719,10.699219 7.7011719,10.531086 7.8318676,10.400391 8,10.400391 Z"
    transform="matrix(64,0,0,64,0,0)" />
</svg>