<svg xmlns="http://www.w3.org/2000/svg" width="1024px" height="1024px" viewBox="0 0 1024 1024">
  <path
    d="M 3.5,2 C 2.6774973,2 2,2.6774973 2,3.5 V 6 C 2,6.8225027 2.6774973,7.5 3.5,7.5 H 6 C 6.8225027,7.5 7.5,6.8225027 7.5,6 V 3.5 C 7.5,2.6774973 6.8225027,2 6,2 Z m 0,1 H 6 C 6.2821113,3 6.5,3.2178887 6.5,3.5 V 6 C 6.5,6.2821113 6.2821113,6.5 6,6.5 H 3.5 C 3.2178887,6.5 3,6.2821113 3,6 V 3.5 C 3,3.2178887 3.2178887,3 3.5,3 Z"
    transform="matrix(64,0,0,64,0,0)" />
  <path
    d="M 3.5,8.5 C 2.6774973,8.5 2,9.1774973 2,10 v 2.5 C 2,13.322503 2.6774973,14 3.5,14 H 6 c 0.8225027,0 1.5,-0.677497 1.5,-1.5 V 10 C 7.5,9.1774973 6.8225027,8.5 6,8.5 Z m 0,1 H 6 c 0.2821113,0 0.5,0.2178887 0.5,0.5 v 2.5 C 6.5,12.782111 6.2821113,13 6,13 H 3.5 C 3.2178887,13 3,12.782111 3,12.5 V 10 C 3,9.7178887 3.2178887,9.5 3.5,9.5 Z"
    transform="matrix(64,0,0,64,0,0)" />
  <path
    d="M 10,8.5 C 9.1774973,8.5 8.5,9.1774973 8.5,10 v 2.5 c 0,0.822503 0.6774973,1.5 1.5,1.5 h 2.5 C 13.322503,14 14,13.322503 14,12.5 V 10 C 14,9.1774973 13.322503,8.5 12.5,8.5 Z m 0,1 h 2.5 c 0.282111,0 0.5,0.2178887 0.5,0.5 v 2.5 C 13,12.782111 12.782111,13 12.5,13 H 10 C 9.7178887,13 9.5,12.782111 9.5,12.5 V 10 C 9.5,9.7178887 9.7178887,9.5 10,9.5 Z"
    transform="matrix(64,0,0,64,0,0)" />
</svg>