<svg xmlns="http://www.w3.org/2000/svg" width="1024px" height="1024px" viewBox="0 0 1024 1024">
  <path
    d="M 800 576 C 817.671875 576 832 590.328125 832 608 L 832 768 L 992 768 C 1009.671875 768 1024 782.328125 1024 800 C 1024 817.671875 1009.671875 832 992 832 L 832 832 L 832 992 C 832 1009.671875 817.671875 1024 800 1024 C 782.328125 1024 768 1009.671875 768 992 L 768 832 L 608 832 C 590.328125 832 576 817.671875 576 800 C 576 782.328125 590.328125 768 608 768 L 768 768 L 768 608 C 768 590.328125 782.328125 576 800 576 Z M 800 576 " />
  <path
    d="M 391.789062 192 L 168.53125 192 C 153.90625 192 128 208.539062 128 247.46875 L 128 776.53125 C 128 815.460938 153.90625 832 168.53125 832 L 512 832 L 512 896 L 168.53125 896 C 110.800781 896 64 842.515625 64 776.53125 L 64 247.46875 C 64 181.488281 110.800781 128 168.53125 128 L 391.789062 128 C 409.222656 128 425.90625 135.113281 437.976562 147.695312 L 541.867188 256 L 832 256 C 902.695312 256 960 313.308594 960 384 L 960 512 L 896 512 L 896 384 C 896 348.652344 867.347656 320 832 320 L 514.574219 320 Z M 391.789062 192 " />
</svg>