<svg xmlns="http://www.w3.org/2000/svg" width="1024px" height="1024px" viewBox="0 0 1024 1024">
  <path
    d="M 704,64 H 506.50781 c -25.45703,0 -49.875,10.113281 -67.8789,28.117188 L 220.11719,310.62891 C 202.11328,328.63281 192,353.05078 192,378.50781 V 832 c 0,70.69531 57.30859,128 128,128 h 384 c 70.69531,0 128,-57.30469 128,-128 V 192 C 832,121.30859 774.69531,64 704,64 Z m 0,64 c 35.34766,0 64,28.65234 64,64 v 640 c 0,35.34766 -28.65234,64 -64,64 H 320 c -35.34766,0 -76.07982,-30.78051 -64,-64 V 384 h 160 c 53.01953,0 96,-42.98047 96,-96 V 128 Z M 301.25391,320 448,173.25391 V 288 c 0,17.67187 -14.32813,32 -32,32 z" />
</svg>