<svg xmlns="http://www.w3.org/2000/svg" width="1024px" height="1024px" viewBox="0 0 1024 1024">
  <path
    d="M 176 128 C 114.964844 128 64 181.207031 64 247.5 L 64 776.5 C 64 842.792969 114.964844 896 176 896 L 848 896 C 909.035156 896 960 842.792969 960 776.5 L 960 384 C 960 313.6875 902.3125 256 832 256 L 544 256 L 431.125 146.125 C 419.183594 134.507812 403.160156 128 386.5 128 Z M 176 192 L 386.5 192 L 499.375 301.875 L 518 320 L 832 320 C 867.722656 320 896 348.273438 896 384 L 896 776.5 C 896 810.777344 871.496094 832 848 832 L 176 832 C 152.5 832 128 810.777344 128 776.5 L 128 247.5 C 128 213.222656 152.496094 192 176 192 Z M 176 192 " />
</svg>