<svg xmlns="http://www.w3.org/2000/svg" width="1024px" height="1024px" viewBox="0 0 1024 1024">
  <path
    d="m 206.5,279.65625 c -19.47266,25.57422 -35.78906,53.64453 -48.39453,83.625 l 53.73047,90.75391 c 21.16406,35.74609 21.16406,80.18359 0,115.92968 l -53.73047,90.75391 c 12.60547,29.98047 28.92187,58.05078 48.39453,83.625 l 105.34766,-1.14844 c 41.53906,-0.45703 80.02343,21.75781 100.39843,57.96485 l 51.6875,91.83203 c 15.80469,1.98437 31.9336,3.00781 48.32813,3.00781 16.39062,0 32.51562,-1.02344 48.3164,-3 l 51.69141,-91.83984 c 20.375,-36.20704 58.85938,-58.42188 100.39453,-57.96485 l 105.35938,1.14844 c 19.46875,-25.57422 35.78906,-53.63672 48.39062,-83.61328 l -53.73437,-90.76563 c -21.16797,-35.74609 -21.16797,-80.18359 0,-115.92968 l 53.73437,-90.76172 C 853.8125,333.29297 837.49219,305.23047 818.02344,279.65625 l -105.35938,1.15234 c -41.53515,0.45703 -80.01953,-21.76172 -100.39453,-57.96484 L 560.57812,131.00391 C 544.77734,129.02344 528.65234,128 512.26172,128 c -16.39453,0 -32.52344,1.02344 -48.32813,3.00391 l -51.6875,91.83984 c -20.375,36.20312 -58.85937,58.42187 -100.39843,57.96484 z M 681.92187,512 c 0,93.70312 -75.96093,169.66406 -169.66406,169.66406 -93.70312,0 -169.66406,-75.96094 -169.66406,-169.66406 0,-93.70313 75.96094,-169.66406 169.66406,-169.66406 93.70313,0 169.66406,75.96093 169.66406,169.66406 z m -369.375,-295.1875 c 18.17579,0.19922 35.01172,-9.52344 43.92579,-25.35938 L 412.04297,92.71875 C 419.14453,80.101562 431.36719,71.046875 445.6875,68.914062 467.41016,65.675781 489.64062,64 512.26172,64 c 22.61719,0 44.84375,1.675781 66.5625,4.910156 14.32422,2.132813 26.54297,11.191406 33.64844,23.808594 l 55.57031,98.73437 c 8.91015,15.83594 25.75,25.5586 43.92578,25.35938 l 113.23437,-1.23828 c 14.45313,-0.16016 28.37891,5.875 37.39454,17.16797 27.63671,34.6289 50.24609,73.44531 66.72656,115.34375 5.29297,13.45703 3.55859,28.54687 -3.8086,40.98828 L 867.75,486.64062 c -9.26172,15.63672 -9.26172,35.08204 0,50.71875 l 57.76562,97.56641 c 7.36719,12.44141 9.10157,27.53125 3.8086,40.99219 -16.48047,41.89453 -39.08985,80.71094 -66.72656,115.33984 -9.01563,11.29688 -22.94141,17.33203 -37.39454,17.17188 L 711.96875,807.1875 c -18.17578,-0.19922 -35.01563,9.52344 -43.92578,25.35547 l -55.57031,98.73828 c -7.10547,12.61719 -19.32422,21.67187 -33.64844,23.80859 C 557.10547,958.32422 534.87891,960 512.26172,960 c -22.6211,0 -44.85156,-1.67578 -66.57422,-4.91406 -14.32031,-2.13282 -26.54297,-11.1875 -33.64453,-23.8086 l -55.57031,-98.73437 c -8.91407,-15.83203 -25.75,-25.55469 -43.92579,-25.35547 l -113.22656,1.24219 c -14.44922,0.16015 -28.3789,-5.875 -37.39453,-17.17188 -27.64062,-34.6289 -50.2539,-73.44531 -66.734374,-115.35547 -5.292968,-13.44922 -3.554687,-28.54297 3.8125,-40.98437 l 57.757814,-97.5586 c 9.26172,-15.63671 9.26172,-35.08203 0,-50.71875 L 99.003906,389.08594 c -7.367187,-12.44532 -9.105468,-27.53516 -3.8125,-40.99219 16.480474,-41.90234 39.093754,-80.72266 66.734374,-115.35156 9.01563,-11.29297 22.94531,-17.32813 37.39453,-17.16797 z M 406.59375,512 c 0,58.35547 52.32227,105.66406 105.66406,105.66406 53.3418,0 105.66406,-47.30859 105.66406,-105.66406 0,-58.35547 -55.85354,-105.66406 -105.66406,-105.66406 -49.81052,0 -105.66406,47.30859 -105.66406,105.66406 z" />
</svg>