<svg xmlns="http://www.w3.org/2000/svg" width="1024px" height="1024px" viewBox="0 0 1024 1024">
  <path
    d="m 3.75,9.5 c -1.3747821,0 -2.5,1.125218 -2.5,2.5 0,1.374782 1.1252179,2.5 2.5,2.5 1.3747821,0 2.5,-1.125218 2.5,-2.5 0,-1.374782 -1.1252179,-2.5 -2.5,-2.5 z m 0,1 c 0.8343239,0 1.5,0.665676 1.5,1.5 0,0.834324 -0.6656761,1.5 -1.5,1.5 -0.8343239,0 -1.5,-0.665676 -1.5,-1.5 0,-0.834324 0.6656761,-1.5 1.5,-1.5 z"
    transform="matrix(64,0,0,64,0,0)" />
  <path
    d="m 3.75,1.5 c -1.3747821,0 -2.5,1.1252179 -2.5,2.5 0,1.3747821 1.1252179,2.5 2.5,2.5 1.3747821,0 2.5,-1.1252179 2.5,-2.5 0,-1.3747821 -1.1252179,-2.5 -2.5,-2.5 z m 0,1 c 0.8343239,0 1.5,0.6656761 1.5,1.5 0,0.8343239 -0.6656761,1.5 -1.5,1.5 -0.8343239,0 -1.5,-0.6656761 -1.5,-1.5 0,-0.8343239 0.6656761,-1.5 1.5,-1.5 z"
    transform="matrix(64,0,0,64,0,0)" />
  <path
    d="m 3.25,6 v 4 h 1 V 6 Z"
    transform="matrix(64,0,0,64,0,0)" />
  <path
    d="m 12.25,9.5 c -1.374782,0 -2.5,1.125218 -2.5,2.5 0,1.374782 1.125218,2.5 2.5,2.5 1.374782,0 2.5,-1.125218 2.5,-2.5 0,-1.374782 -1.125218,-2.5 -2.5,-2.5 z m 0,1 c 0.834324,0 1.5,0.665676 1.5,1.5 0,0.834324 -0.665676,1.5 -1.5,1.5 -0.834324,0 -1.5,-0.665676 -1.5,-1.5 0,-0.834324 0.665676,-1.5 1.5,-1.5 z"
    transform="matrix(64,0,0,64,0,0)" />
  <path
    d="m 8,3.5 v 1 h 2.650391 C 11.263831,4.5 11.75,4.9862252 11.75,5.5996094 V 10 h 1 V 5.5996094 C 12.75,4.4457815 11.804284,3.5 10.650391,3.5 Z"
    transform="matrix(64,0,0,64,0,0)" />
  <path
    d="M 9.3964844,1.6464844 7.0429687,4 9.3964844,6.3535156 a 0.5,0.5 0 0 0 0.7070316,0 0.5,0.5 0 0 0 0,-0.7070312 L 8.4570313,4 10.103516,2.3535156 a 0.5,0.5 0 0 0 0,-0.7070312 0.5,0.5 0 0 0 -0.7070316,0 z"
    transform="matrix(64,0,0,64,0,0)" />
</svg>