<svg xmlns="http://www.w3.org/2000/svg" width="1024px" height="1024px" viewBox="0 0 1024 1024">
  <path
    d="M 374.628906 521.371094 C 362.128906 508.875 341.871094 508.875 329.371094 521.371094 C 316.875 533.871094 316.875 554.128906 329.371094 566.628906 L 466.746094 704 L 32 704 C 14.328125 704 0 718.328125 0 736 C 0 753.671875 14.328125 768 32 768 L 466.746094 768 L 329.371094 905.371094 C 316.875 917.867188 316.875 938.132812 329.371094 950.628906 C 341.871094 963.125 362.128906 963.125 374.628906 950.628906 L 566.628906 758.628906 L 589.253906 736 L 566.628906 713.371094 Z M 374.628906 521.371094 " />
  <path
    d="M 649.371094 73.371094 C 661.867188 60.875 682.132812 60.875 694.628906 73.371094 C 707.125 85.871094 707.125 106.128906 694.628906 118.628906 L 557.253906 256 L 992 256 C 1009.671875 256 1024 270.328125 1024 288 C 1024 305.671875 1009.671875 320 992 320 L 557.253906 320 L 694.628906 457.371094 C 707.125 469.871094 707.125 490.128906 694.628906 502.628906 C 682.132812 515.125 661.867188 515.125 649.371094 502.628906 L 457.371094 310.628906 L 434.746094 288 L 457.371094 265.371094 Z M 649.371094 73.371094 " />
</svg>