<svg xmlns="http://www.w3.org/2000/svg" width="1024px" height="1024px" viewBox="0 0 1024 1024">
  <path
    d="M 4.5,1.5 C 3.1252179,1.5 2,2.6252179 2,4 2,5.3747821 3.1252179,6.5 4.5,6.5 5.8747821,6.5 7,5.3747821 7,4 7,2.6252179 5.8747821,1.5 4.5,1.5 Z m 0,1 C 5.3343239,2.5 6,3.1656761 6,4 6,4.8343239 5.3343239,5.5 4.5,5.5 3.6656761,5.5 3,4.8343239 3,4 3,3.1656761 3.6656761,2.5 4.5,2.5 Z"
    transform="matrix(64,0,0,64,0,0)" />
  <path
    d="M 10,8 V 9.5 C 10,10.3344 9.3343423,11 8.5,11 h -4 v 1 h 4 C 9.8747637,12 11,10.874828 11,9.5 V 8 Z"
    transform="matrix(64,0,0,64,0,0)" />
  <path
    d="M 4.5,6 A 0.5,0.5 0 0 0 4,6.5 v 8 A 0.5,0.5 0 0 0 4.5,15 0.5,0.5 0 0 0 5,14.5 v -8 A 0.5,0.5 0 0 0 4.5,6 Z"
    transform="matrix(64,0,0,64,0,0)" />
  <path
    d="M 10.5,3.5 C 9.1252179,3.5 8,4.6252179 8,6 8,7.3747821 9.1252179,8.5 10.5,8.5 11.874782,8.5 13,7.3747821 13,6 13,4.6252179 11.874782,3.5 10.5,3.5 Z m 0,1 C 11.334324,4.5 12,5.1656761 12,6 12,6.8343239 11.334324,7.5 10.5,7.5 9.6656761,7.5 9,6.8343239 9,6 9,5.1656761 9.6656761,4.5 10.5,4.5 Z"
    transform="matrix(64,0,0,64,0,0)" />
</svg>