<svg xmlns="http://www.w3.org/2000/svg" width="1024px" height="1024px" viewBox="0 0 1024 1024">
  <path
    d="M 822.628906 201.371094 C 835.125 213.871094 835.125 234.128906 822.628906 246.628906 L 732.113281 337.136719 C 719.621094 349.632812 699.359375 349.632812 686.859375 337.136719 C 674.367188 324.640625 674.367188 304.378906 686.859375 291.882812 L 777.371094 201.371094 C 789.867188 188.875 810.132812 188.875 822.628906 201.371094 Z M 822.628906 201.371094 " />
  <path
    d="M 641.605469 382.390625 C 654.105469 394.890625 654.105469 415.148438 641.605469 427.648438 L 551.097656 518.15625 C 538.601562 530.652344 518.339844 530.652344 505.84375 518.15625 C 493.347656 505.660156 493.347656 485.398438 505.84375 472.902344 L 596.351562 382.390625 C 608.851562 369.894531 629.109375 369.894531 641.605469 382.390625 Z M 641.605469 382.390625 " />
  <path
    d="M 460.589844 563.410156 C 473.085938 575.90625 473.085938 596.167969 460.589844 608.667969 L 370.078125 699.175781 C 357.582031 711.671875 337.320312 711.671875 324.824219 699.175781 C 312.328125 686.679688 312.328125 666.417969 324.824219 653.921875 L 415.332031 563.410156 C 427.832031 550.914062 448.09375 550.914062 460.589844 563.410156 Z M 460.589844 563.410156 " />
  <path
    d="M 224 320 C 241.671875 320 256 334.328125 256 352 L 256 480 C 256 497.671875 241.671875 512 224 512 C 206.328125 512 192 497.671875 192 480 L 192 352 C 192 334.328125 206.328125 320 224 320 Z M 224 320 " />
  <path
    d="M 224 576 C 241.671875 576 256 590.328125 256 608 L 256 768 L 416 768 C 433.671875 768 448 782.328125 448 800 C 448 817.671875 433.671875 832 416 832 L 224 832 C 206.328125 832 192 817.671875 192 800 L 192 608 C 192 590.328125 206.328125 576 224 576 Z M 224 576 " />
  <path
    d="M 512 800 C 512 782.328125 526.328125 768 544 768 L 672 768 C 689.671875 768 704 782.328125 704 800 C 704 817.671875 689.671875 832 672 832 L 544 832 C 526.328125 832 512 817.671875 512 800 Z M 512 800 " />
</svg>