<svg xmlns="http://www.w3.org/2000/svg" width="1024px" height="1024px" viewBox="0 0 1024 1024">
  <path
    d="M 8,1.3769531 5.6464844,3.7304688 a 0.5,0.5 0 0 0 0,0.7070312 0.5,0.5 0 0 0 0.7070312,0 L 8,2.7910156 9.6464844,4.4375 a 0.5,0.5 0 0 0 0.7070316,0 0.5,0.5 0 0 0 0,-0.7070312 z"
    transform="matrix(64,0,0,64,0,0)" />
  <path
    d="m 8,2.0839844 a 0.5,0.5 0 0 0 -0.5,0.5 V 6.1640625 C 7.5,6.6022696 7.3092607,7.0175838 6.9765625,7.3027344 L 4.8730469,9.1054688 C 4.3191491,9.5802062 4,10.274435 4,11.003906 v 3.080078 a 0.5,0.5 0 0 0 0.5,0.5 0.5,0.5 0 0 0 0.5,-0.5 V 11.003906 C 5,10.565775 5.1907393,10.150385 5.5234375,9.8652344 L 7.6269531,8.0625 C 8.1808509,7.5877626 8.5,6.8935794 8.5,6.1640625 V 2.5839844 a 0.5,0.5 0 0 0 -0.5,-0.5 z"
    transform="matrix(64,0,0,64,0,0)" />
  <path
    d="m 8,2.0839844 a 0.5,0.5 0 0 0 -0.5,0.5 V 6.1640625 C 7.5,6.8935794 7.8191491,7.5877626 8.3730469,8.0625 L 10.476563,9.8652344 C 10.809261,10.150385 11,10.565775 11,11.003906 v 3.080078 a 0.5,0.5 0 0 0 0.5,0.5 0.5,0.5 0 0 0 0.5,-0.5 V 11.003906 C 12,10.274435 11.680851,9.5802062 11.126953,9.1054688 L 9.0234375,7.3027344 C 8.6907393,7.0175838 8.5,6.6022696 8.5,6.1640625 V 2.5839844 a 0.5,0.5 0 0 0 -0.5,-0.5 z"
    transform="matrix(64,0,0,64,0,0)" />
</svg>