<svg xmlns="http://www.w3.org/2000/svg" width="1024px" height="1024px" viewBox="0 0 1024 1024">
  <path
    d="M 4,2 C 2.901352,2 2,2.901352 2,4 v 8 c 0,1.098648 0.901352,2 2,2 h 8 c 1.098648,0 2,-0.901352 2,-2 V 4 C 14,2.901352 13.098648,2 12,2 Z m 0,1 h 8 c 0.558212,0 1,0.441788 1,1 v 8 c 0,0.558212 -0.441788,1 -1,1 H 4 C 3.441788,13 3,12.558212 3,12 V 4 C 3,3.441788 3.441788,3 4,3 Z"
    transform="matrix(64,0,0,64,0,0)" />
  <path
    d="M 352 320 L 672 320 C 689.671875 320 704 334.328125 704 352 C 704 369.671875 689.671875 384 672 384 L 352 384 C 334.328125 384 320 369.671875 320 352 C 320 334.328125 334.328125 320 352 320 Z M 352 320 "/>
  <path
    d="M 352 480 L 672 480 C 689.671875 480 704 494.328125 704 512 C 704 529.671875 689.671875 544 672 544 L 352 544 C 334.328125 544 320 529.671875 320 512 C 320 494.328125 334.328125 480 352 480 Z M 352 480 "/>
  <path
    d="M 352 640 L 672 640 C 689.671875 640 704 654.328125 704 672 C 704 689.671875 689.671875 704 672 704 L 352 704 C 334.328125 704 320 689.671875 320 672 C 320 654.328125 334.328125 640 352 640 Z M 352 640 "/>
</svg>