<svg xmlns="http://www.w3.org/2000/svg" width="1024px" height="1024px" viewBox="0 0 1024 1024">
  <path
    d="M 256 320 L 192 320 L 192 384 L 256 384 Z M 256 320 "/>
  <path
    d="M 320 448 L 256 448 L 256 512 L 320 512 Z M 320 448 "/>
  <path
    d="M 448 320 L 512 320 L 512 384 L 448 384 Z M 448 320 "/>
  <path
    d="M 576 448 L 512 448 L 512 512 L 576 512 Z M 576 448 "/>
  <path
    d="M 320 320 L 384 320 L 384 384 L 320 384 Z M 320 320 "/>
  <path
    d="M 448 448 L 384 448 L 384 512 L 448 512 Z M 448 448 "/>
  <path
    d="M 576 320 L 640 320 L 640 384 L 576 384 Z M 576 320 "/>
  <path
    d="M 768 320 L 704 320 L 704 384 L 768 384 Z M 768 320 "/>
  <path
    d="M 640 448 L 704 448 L 704 512 L 640 512 Z M 640 448 "/>
  <path
    d="M 640 640 L 320 640 L 320 704 L 640 704 Z M 640 640 "/>
  <path
    d="M 0,256 C 0,185.30859 57.308594,128 128,128 h 704 c 70.69531,0 128,57.30859 128,128 v 512 c 0,70.69531 -57.30469,128 -128,128 H 128 C 57.308594,896 0,838.69531 0,768 Z m 64,0 v 512 c 0,35.34766 28.652344,64 64,64 h 704 c 35.34766,0 64,-28.65234 64,-64 V 256 c 0,-35.34766 -28.65234,-64 -64,-64 H 128 c -35.347656,0 -64,28.65234 -64,64 z" />
</svg>