<svg xmlns="http://www.w3.org/2000/svg" width="1024px" height="1024px" viewBox="0 0 1024 1024">
  <path
    d="m 447.99219,832 h -191.9961 c -35.34765,0 -64,-28.65234 -64,-64 V 256 c 0,-35.34766 28.65235,-64 64,-64 h 191.9961 z m 384,-384 h -320 V 192 h 256 c 35.34765,0 64,28.65234 64,64 z m -320,64 h 320 v 256 c 0,35.34766 -28.65235,64 -64,64 H 512 Z M 255.99609,128 c -70.6914,0 -128,57.30859 -128,128 v 512 c 0,70.69531 57.3086,128 128,128 h 511.9961 c 70.69531,0 128,-57.30469 128,-128 V 256 c 0,-70.69141 -57.30469,-128 -128,-128 z" />
</svg>