<svg xmlns="http://www.w3.org/2000/svg" width="1024px" height="1024px" viewBox="0 0 1024 1024">
  <path
    d="M 8.9335938,2 C 8.3958594,2 8,2.4691123 8,3.0917969 V 6.9082031 C 8,7.5308877 8.3958594,8 8.9335938,8 H 14.066406 C 14.604141,8 15,7.5308389 15,6.9082031 V 4.1699219 c 0,-0.5464437 -0.453482,-1 -1,-1 H 12.267578 L 11.339844,2.1816406 C 11.231323,2.0653728 11.079492,2 10.921875,2 Z m 0,0.9804688 h 1.8144532 l 0.802734,0.859375 0.291016,0.3105468 H 14 c 0.01708,0 0.01953,0.0025 0.01953,0.019531 v 2.7382812 c 0,0.1937703 -0.140029,0.1113282 0.04687,0.1113281 H 8.9335938 c 0.1869043,0 0.046875,0.082393 0.046875,-0.1113281 V 3.0917969 c 0,-0.1937215 0.1400293,-0.1113281 -0.046875,-0.1113281 z"
    transform="matrix(64,0,0,64,0,0)" />
  <path
    d="M 8.9335938,10 C 8.3957458,10 8,10.469112 8,11.091797 v 3.816406 C 8,15.530888 8.3957458,16 8.9335938,16 H 14.066406 C 14.604254,16 15,15.530839 15,14.908203 v -2.738281 c 0,-0.546444 -0.453482,-1 -1,-1 H 12.267578 L 11.339844,10.181641 C 11.230971,10.06533 11.077981,10 10.921875,10 Z m 0,0.980469 h 1.8144532 l 0.802734,0.859375 0.291016,0.310547 H 14 c 0.01708,0 0.01953,0.0025 0.01953,0.01953 v 2.738281 c 0,0.19377 -0.140143,0.111328 0.04687,0.111328 H 8.9335938 c 0.1870179,0 0.046875,0.08239 0.046875,-0.111328 v -3.816406 c 0,-0.193722 0.1401429,-0.111328 -0.046875,-0.111328 z"
    transform="matrix(64,0,0,64,0,0)" />
  <path
    d="M 1.5,1 A 0.5,0.5 0 0 0 1,1.5 v 3 7.5 c 0,0.546385 0.4536146,1 1,1 H 6.5 A 0.5,0.5 0 0 0 7,12.5 0.5,0.5 0 0 0 6.5,12 H 2 V 5 H 6.5 A 0.5,0.5 0 0 0 7,4.5 0.5,0.5 0 0 0 6.5,4 H 2 V 1.5 A 0.5,0.5 0 0 0 1.5,1 Z"
    transform="matrix(64,0,0,64,0,0)" />
</svg>