<svg xmlns="http://www.w3.org/2000/svg" width="1024px" height="1024px" viewBox="0 0 1024 1024">
  <path
    d="m 320,320 c 0,-106.03906 85.96094,-192 192,-192 106.03906,0 192,85.96094 192,192 v 64 c 70.69531,0 128,57.30859 128,128 v 256 c 0,70.69531 -57.30469,128 -128,128 H 320 C 249.30859,896 192,838.69531 192,768 V 512 c 0,-70.69141 57.30859,-128 128,-128 z m 64,0 v 64 H 640 V 320 C 640,249.30859 582.68986,192.46842 512,192 445.77497,191.56117 384,248.43931 384,320 Z m -64,128 c -35.34766,0 -64,28.65234 -64,64 v 256 c 0,35.34766 28.65234,64 64,64 h 384 c 35.34766,0 64,-28.65234 64,-64 V 512 c 0,-35.34766 -28.65234,-64 -64,-64 z m 192,96 c -17.67188,0 -32,14.32812 -32,32 v 128 c 0,17.67187 14.32812,32 32,32 17.67187,0 32,-14.32813 32,-32 V 576 c 0,-17.67188 -14.32813,-32 -32,-32 z" />
</svg>