<svg xmlns="http://www.w3.org/2000/svg" width="1024px" height="1024px" viewBox="0 0 1024 1024">
  <path
    d="M 576 192 C 576 156.652344 547.347656 128 512 128 C 476.652344 128 448 156.652344 448 192 C 448 227.347656 476.652344 256 512 256 C 547.347656 256 576 227.347656 576 192 Z M 576 192 " />
  <path
    d="M 576 512 C 576 476.652344 547.347656 448 512 448 C 476.652344 448 448 476.652344 448 512 C 448 547.347656 476.652344 576 512 576 C 547.347656 576 576 547.347656 576 512 Z M 576 512 " />
  <path
    d="M 576 832 C 576 796.652344 547.347656 768 512 768 C 476.652344 768 448 796.652344 448 832 C 448 867.347656 476.652344 896 512 896 C 547.347656 896 576 867.347656 576 832 Z M 576 832 " />
</svg>