<svg xmlns="http://www.w3.org/2000/svg" width="1024px" height="1024px" viewBox="0 0 1024 1024">
  <path
    d="M 800 576 C 817.671875 576 832 590.328125 832 608 L 832 768 L 992 768 C 1009.671875 768 1024 782.328125 1024 800 C 1024 817.671875 1009.671875 832 992 832 L 832 832 L 832 992 C 832 1009.671875 817.671875 1024 800 1024 C 782.328125 1024 768 1009.671875 768 992 L 768 832 L 608 832 C 590.328125 832 576 817.671875 576 800 C 576 782.328125 590.328125 768 608 768 L 768 768 L 768 608 C 768 590.328125 782.328125 576 800 576 Z M 800 576 " />
  <path
    d="M 192 832 L 192 373.019531 C 192 339.070312 205.484375 306.515625 229.492188 282.507812 L 410.507812 101.492188 C 434.515625 77.484375 467.070312 64 501.019531 64 L 704 64 C 774.695312 64 832 121.308594 832 192 L 832 512 L 768 512 L 768 192 C 768 156.652344 739.347656 128 704 128 L 512 128 L 512 256 C 512 326.691406 454.691406 384 384 384 L 256 384 L 256 832 C 256 867.347656 284.652344 896 320 896 L 512 896 L 512 960 L 320 960 C 249.308594 960 192 902.695312 192 832 Z M 282.507812 320 L 448 154.507812 L 448 256 C 448 291.347656 419.347656 320 384 320 Z M 282.507812 320 " />
</svg>