<svg xmlns="http://www.w3.org/2000/svg" width="1024px" height="1024px" viewBox="0 0 1024 1024">
  <path
     d="M 800 576 C 817.671875 576 832 590.328125 832 608 L 832 768 L 992 768 C 1009.671875 768 1024 782.328125 1024 800 C 1024 817.671875 1009.671875 832 992 832 L 832 832 L 832 992 C 832 1009.671875 817.671875 1024 800 1024 C 782.328125 1024 768 1009.671875 768 992 L 768 832 L 608 832 C 590.328125 832 576 817.671875 576 800 C 576 782.328125 590.328125 768 608 768 L 768 768 L 768 608 C 768 590.328125 782.328125 576 800 576 Z M 800 576 "/>
  <path
     d="M 192,832 V 373.01953 c 0,-33.94922 13.48437,-66.50391 37.49219,-90.51172 L 410.50781,101.49219 C 434.51562,77.484375 467.07031,64 501.01953,64 H 704 c 70.69531,0 128,57.30859 128,128 V 512 H 768 V 192 c 0,-35.34766 -28.65234,-64 -64,-64 H 512 v 128 c 0,70.69141 -57.30859,128 -128,128 H 256 v 448 c 0,35.34766 28.65234,64 64,64 h 192 v 64 H 320 C 249.30859,960 192,902.69531 192,832 Z M 448,154.50781 282.50781,320 H 384 c 35.34766,0 64,-28.65234 64,-64 z"/>
</svg>
