<svg width="1024px" height="1024px" viewBox="0 0 1024 1024" xmlns="http://www.w3.org/2000/svg">
  <path
    d="M 8,0.25 C 3.7286968,0.25 0.25,3.7286968 0.25,8 c 0,4.271303 3.4786968,7.75 7.75,7.75 4.271303,0 7.75,-3.478697 7.75,-7.75 C 15.75,3.7286968 12.271303,0.25 8,0.25 Z m 0,1.5 c 3.460631,0 6.25,2.7893692 6.25,6.25 0,3.460631 -2.789369,6.25 -6.25,6.25 C 4.5393692,14.25 1.75,11.460631 1.75,8 1.75,4.5393692 4.5393692,1.75 8,1.75 Z"
    transform="matrix(64,0,0,64,0,0)" />
  <path
    d="M 740.125 316 C 724.867188 316.621094 710.480469 323.273438 700.125 334.5 L 434.75 622.375 L 314.5 497.125 C 292.464844 474.230469 256.054688 473.503906 233.125 495.5 C 210.230469 517.535156 209.503906 553.945312 231.5 576.875 L 394.125 746.25 C 405.128906 757.695312 420.375 764.09375 436.25 763.925781 C 452.128906 763.761719 467.234375 757.046875 478 745.375 L 784.875 412.5 C 806.410156 389.09375 804.898438 352.667969 781.5 331.125 C 770.257812 320.800781 755.375 315.359375 740.125 316 Z M 740.125 316 "/>
</svg>