<svg xmlns="http://www.w3.org/2000/svg" width="1024px" height="1024px" viewBox="0 0 1024 1024">
  <path
    d="M 512 64 C 264.57812 64 64 264.57812 64 512 C 64 759.42187 264.57812 960 512 960 C 759.42187 960 960 759.42187 960 512 C 960 264.57812 759.42187 64 512 64 z M 740.125 316 C 755.37594 315.36017 770.25725 320.80017 781.5 331.125 C 804.89782 352.66656 806.40863 389.09494 784.875 412.5 L 478 745.375 C 455.50991 769.76482 417.11902 770.16546 394.125 746.25 L 231.5 576.875 C 209.50417 553.94482 210.23127 517.53377 233.125 495.5 C 256.05518 473.50417 292.46623 474.23127 314.5 497.125 L 434.75 622.375 L 700.125 334.5 C 710.47873 323.27467 724.86644 316.62016 740.125 316 z " />
</svg>