<svg xmlns="http://www.w3.org/2000/svg" width="1024px" height="1024px" viewBox="0 0 1024 1024">
  <path
    d="m 11.275391,1.5019531 c -0.399576,-4.745e-4 -0.798642,0.151684 -1.09961,0.4589844 L 8.0351563,4.0898437 h -0.00195 L 2,10.113281 V 14 h 3.9472656 l 6.0039064,-5.9921875 2.091797,-2.09375 -0.0059,0.00391 C 14.648193,5.3225346 14.643065,4.335083 14.052734,3.7363281 L 12.384766,1.9648437 12.375,1.9550781 C 12.074524,1.6551828 11.674966,1.5024276 11.275391,1.5019531 Z m -0.384766,1.1582032 c 0.215937,-0.2204813 0.56006,-0.2149071 0.779297,0.00391 l 1.666016,1.7695312 0.0039,0.00391 c 0.218683,0.2210207 0.222487,0.5488356 0,0.765625 l -0.0039,0.00195 L 11.597656,6.9472656 9.0957031,4.4453125 10.888672,2.6621094 Z M 8.3867188,5.1503906 10.890625,7.6542969 5.5332031,13 H 3 v -2.472656 z"
    transform="matrix(64,0,0,64,0,0)" />
</svg>