<svg width="1024px" height="1024px" viewBox="0 0 1024 1024" xmlns="http://www.w3.org/2000/svg">
  <path
    d="M 4.75,1.5039062 C 3.7708164,0.93860945 2.5,1.6740655 2.5,2.8046875 V 13.195313 c 0,1.130622 1.2708362,1.866066 2.25,1.300781 l 9,-5.1972659 c 0.979202,-0.5653072 0.979202,-2.032349 0,-2.5976562 z M 3.7421875,2.3574219 C 3.8854166,2.2747258 4.0729048,2.2688542 4.25,2.3710938 l 9,5.1953124 c 0.354172,0.2044689 0.354172,0.6627187 0,0.8671876 l -9,5.1953122 C 3.8957898,13.833397 3.5,13.60424 3.5,13.195313 V 2.8046875 c 0,-0.204464 0.098958,-0.3645696 0.2421875,-0.4472656 z"
    transform="matrix(64,0,0,64,0,0)" />
</svg>