<svg width="1024px" height="1024px" viewBox="0 0 1024 1024" xmlns="http://www.w3.org/2000/svg">
  <path
    d="M 13.023438 896 L 193.953125 403.199219 L 271.039062 403.199219 L 457.953125 896 L 384.03125 896 L 339.328125 770.6875 L 130.238281 770.6875 L 88.351562 896 Z M 149.953125 711.902344 L 318.207031 711.902344 L 240.0625 496.832031 L 231.96875 466.558594 L 223.871094 496.832031 Z M 149.953125 711.902344 "/>
  <path
    d="M 557.023438 896 L 737.953125 403.199219 L 815.039062 403.199219 L 1001.953125 896 L 928.03125 896 L 883.328125 770.6875 L 674.238281 770.6875 L 632.351562 896 Z M 693.953125 711.902344 L 862.207031 711.902344 L 784.0625 496.832031 L 775.96875 466.558594 L 767.871094 496.832031 Z M 693.953125 711.902344 "/>
  <path
    d="m 7,0.5 a 0.5,0.5 0 0 0 -0.3535156,0.14648437 0.5,0.5 0 0 0 0,0.70703123 L 8.6992188,3.40625 6.6464844,5.4589844 a 0.5,0.5 0 0 0 0,0.7070312 0.5,0.5 0 0 0 0.7070312,0 L 10.113281,3.40625 7.3535156,0.64648437 A 0.5,0.5 0 0 0 7,0.5 Z"
    transform="matrix(64,0,0,64,0,0)" />
</svg>