<svg width="1024px" height="1024px" viewBox="0 0 1024 1024" xmlns="http://www.w3.org/2000/svg">
  <path
    d="M 8,2 C 4.6921883,2 2,4.6921883 2,8 V 9 A 0.5,0.5 0 0 0 2.5,9.5 0.5,0.5 0 0 0 3,9 V 8 C 3,5.2326157 5.2326157,3 8,3 9.0083599,3 9.9420996,3.2971058 10.726563,3.8085938 A 0.5,0.5 0 0 0 11.417969,3.6621094 0.5,0.5 0 0 0 11.273438,2.9707031 C 10.332314,2.3570691 9.2052641,2 8,2 Z"
    transform="matrix(64,0,0,64,0,0)" />
  <path
    d="M 13.5,6.5 A 0.5,0.5 0 0 0 13,7 v 1 c 0,2.767384 -2.232616,5 -5,5 -1.0083599,0 -1.9421086,-0.297056 -2.7265625,-0.808594 a 0.5,0.5 0 0 0 -0.6914063,0.146485 0.5,0.5 0 0 0 0.1445313,0.691406 C 5.6676946,13.643003 6.7947359,14 8,14 c 3.307812,0 6,-2.692188 6,-6 V 7 A 0.5,0.5 0 0 0 13.5,6.5 Z"
    transform="matrix(64,0,0,64,0,0)" />
  <path
    d="m 0.5,7 a 0.5,0.5 0 0 0 -0.35351563,0.1464844 0.5,0.5 0 0 0 0,0.7070312 L 2.5,10.207031 4.8535156,7.8535156 a 0.5,0.5 0 0 0 0,-0.7070312 0.5,0.5 0 0 0 -0.7070312,0 L 2.5,8.7929688 0.85351563,7.1464844 A 0.5,0.5 0 0 0 0.5,7 Z"
    transform="matrix(64,0,0,64,0,0)" />
  <path
    d="m 13.5,5.7929687 -2.353516,2.3535157 a 0.5,0.5 0 0 0 0,0.7070312 0.5,0.5 0 0 0 0.707032,0 L 13.5,7.2070312 15.146484,8.8535156 a 0.5,0.5 0 0 0 0.707032,0 0.5,0.5 0 0 0 0,-0.7070312 z"
    transform="matrix(64,0,0,64,0,0)" />
</svg>