<svg width="1024px" height="1024px" viewBox="0 0 1024 1024" xmlns="http://www.w3.org/2000/svg">
  <path
    d="M 189.921875 790.398438 L 295.519531 790.398438 L 295.519531 896 L 189.921875 896 Z M 189.921875 790.398438 " />
  <path
    d="M 743.230469 581.921875 L 621.375 427.96875 L 664.894531 392.0625 L 794.910156 537.855469 Z M 532.703125 581.921875 L 481.023438 537.855469 L 611.039062 392.0625 L 654.558594 427.96875 Z M 623.007812 419.808594 L 432.0625 374.65625 L 450.015625 308.832031 L 637.695312 364.863281 Z M 638.238281 423.070312 C 630.261719 423.070312 623.371094 420.351562 617.566406 414.910156 C 612.128906 409.109375 609.40625 402.21875 609.40625 394.238281 C 609.40625 386.261719 612.128906 379.550781 617.566406 374.113281 C 623.371094 368.671875 630.261719 365.953125 638.238281 365.953125 C 646.222656 365.953125 652.929688 368.671875 658.367188 374.113281 C 663.808594 379.550781 666.527344 386.261719 666.527344 394.238281 C 666.527344 402.21875 663.808594 409.109375 658.367188 414.910156 C 652.929688 420.351562 646.222656 423.070312 638.238281 423.070312 Z M 609.40625 394.238281 L 603.96875 198.398438 L 671.96875 198.398438 L 666.527344 394.238281 Z M 652.929688 419.808594 L 638.238281 364.863281 L 825.921875 308.832031 L 843.871094 374.65625 Z M 652.929688 419.808594 " />
</svg>