<svg width="1024px" height="1024px" viewBox="0 0 1024 1024" xmlns="http://www.w3.org/2000/svg">
  <path
    d="M 6.75,1.5 C 3.8564278,1.5 1.5,3.8564278 1.5,6.75 1.5,9.6435722 3.8564278,12 6.75,12 9.6435722,12 12,9.6435722 12,6.75 12,3.8564278 9.6435722,1.5 6.75,1.5 Z m 0,1 C 9.1031318,2.5 11,4.3968682 11,6.75 11,9.1031318 9.1031318,11 6.75,11 4.3968682,11 2.5,9.1031318 2.5,6.75 2.5,4.3968682 4.3968682,2.5 6.75,2.5 Z"
    transform="matrix(64,0,0,64,0,0)" />
  <path
    d="m 9.8457031,9.8457031 a 0.5,0.5 0 0 0 0,0.7089849 l 3.3007809,3.294921 a 0.5,0.5 0 0 0 0.707032,0 0.5,0.5 0 0 0 0,-0.707031 L 10.552734,9.8457031 a 0.5,0.5 0 0 0 -0.7070309,0 z"
    transform="matrix(64,0,0,64,0,0)" />
</svg>