<svg xmlns="http://www.w3.org/2000/svg" width="1024px" height="1024px" viewBox="0 0 1024 1024">
  <path
    d="m 512,384 c 70.69141,0 128,67.66022 128,128 0,60.33978 -57.30859,128 -128,128 -70.69141,0 -128,-67.66022 -128,-128 0,-60.33978 57.30859,-128 128,-128 z m 189.34375,96 C 686.11328,389.19141 607.13672,320 512,320 416.86328,320 337.89062,389.19141 322.65625,480 H 32 c -17.671875,0 -32,14.32812 -32,32 0,17.67187 14.328125,32 32,32 H 322.65625 C 337.89062,634.80859 416.86328,704 512,704 607.13672,704 686.11328,634.80859 701.34375,544 H 992 c 17.6719,0 32,-14.32813 32,-32 0,-17.67188 -14.3281,-32 -32,-32 z" />
</svg>