<svg xmlns="http://www.w3.org/2000/svg" width="1024px" height="1024px" viewBox="0 0 1024 1024">
  <path
    d="M 545.75534,832 H 768 c 35.34766,0 64,-28.65234 64,-64 V 256 c 0,-35.34766 -28.65234,-64 -64,-64 H 545.75534 Z M 480,128 h 288 c 70.69531,0 128,57.30859 128,128 v 512 c 0,70.69531 -57.30469,128 -128,128 H 256 C 185.30859,896 128,838.69531 128,768 V 256 c 0,-70.69141 57.30859,-128 128,-128 z m 0,64 H 256 c -35.34766,0 -64,28.65234 -64,64 v 512 c 0,35.34766 28.65234,64 64,64 h 224 z" />
</svg>