<svg width="1024px" height="1024px" viewBox="0 0 1024 1024" xmlns="http://www.w3.org/2000/svg">
  <path
    d="M 10.615234,4.2578125 9.1953125,5.6875 9.9042969,6.3925781 11.324219,4.9628906 Z M 12.037109,5.6757812 10.607422,7.0957031 11.3125,7.8046875 12.742188,6.3847656 Z M 5.6855469,9.1972656 2.9472656,11.935547 c -0.2943073,0.294307 -0.4375,0.689106 -0.4375,1.064453 0,0.388178 0.1547624,0.767336 0.4277344,1.054688 C 3.2327822,14.365431 3.6343408,14.5 4.0097656,14.5 c 0.3881795,0 0.7673629,-0.154706 1.0546875,-0.427734 l 0.00391,-0.0039 2.7460937,-2.74414 L 7.1074219,10.617188 4.375,13.347656 C 4.2624226,13.454632 4.1416062,13.5 4.0097656,13.5 3.8651704,13.5 3.7468311,13.454392 3.6621094,13.365234 3.5550754,13.252562 3.5097656,13.131842 3.5097656,13 c 0,-0.144673 0.038815,-0.251705 0.1445313,-0.357422 L 6.3925781,9.9042969 Z"
    transform="matrix(64,0,0,64,0,0)" />
  <path
    d="m 4.5,0.99023438 c -0.1813364,0 -0.3384464,0.0261137 -0.4628906,0.046875 A 0.50005,0.50005 0 0 0 3.765625,1.1757812 l -0.5292969,0.53125 a 0.50005,0.50005 0 0 0 0,0.7070313 l 1.3769531,1.375 L 3.8007813,4.6035156 2.4238281,3.2265625 a 0.50005,0.50005 0 0 0 -0.7070312,0 l -0.53125,0.5292969 A 0.50005,0.50005 0 0 0 1.0449219,4.0332031 C 1.0255715,4.1592498 1,4.308898 1,4.4902344 c 0,1.9291102 1.5709531,3.5 3.5,3.5 0.4030478,0 0.7633431,-0.1322259 1.1230469,-0.2597657 l 6.3125001,6.3105473 a 0.50005,0.50005 0 0 0 0,0.02344 C 12.229816,14.358633 12.624575,14.5 13,14.5 c 0.388179,0 0.767337,-0.154765 1.054688,-0.427734 C 14.365431,13.776983 14.5,13.375425 14.5,13 c 0,-0.388179 -0.154765,-0.767337 -0.427734,-1.054687 a 0.50005,0.50005 0 0 0 -0.0078,-0.0098 L 7.7402344,5.6132812 C 7.8680658,5.2558937 8,4.8983671 8,4.4902344 8,2.5611753 6.4290591,0.99023438 4.5,0.99023438 Z M 11.126953,1.1464844 9.3164063,2.9570313 a 0.50005,0.50005 0 0 0 0,0.7070312 L 13.835938,8.1835938 A 0.50005,0.50005 0 0 0 14.6875,7.8769531 L 14.998047,4.5664062 A 0.50005,0.50005 0 0 0 14.853516,4.1660156 L 11.833984,1.1464844 a 0.50005,0.50005 0 0 0 -0.707031,0 z M 4.5,1.9902344 c 1.3908869,0 2.5,1.1091131 2.5,2.5 0,0.3920337 -0.090096,0.7420812 -0.25,1.0703125 a 0.50005,0.50005 0 0 0 0.095703,0.5722656 L 13.347656,12.634766 C 13.45469,12.747439 13.5,12.868159 13.5,13 c 0,0.144595 -0.04561,0.262934 -0.134766,0.347656 C 13.252561,13.45469 13.131841,13.5 13,13.5 c -0.134394,0 -0.233507,-0.04526 -0.332031,-0.134766 a 0.50005,0.50005 0 0 0 -0.01367,-0.01953 L 6.1425781,6.8359375 A 0.50005,0.50005 0 0 0 5.5761719,6.7382812 C 5.2341162,6.9007753 4.8803265,6.9902344 4.5,6.9902344 c -1.3908991,0 -2.5,-1.1090422 -2.5,-2.5 0,-0.038839 0.011742,-0.1017342 0.017578,-0.1503907 l 0.052734,-0.052734 1.3769531,1.3769531 a 0.50005,0.50005 0 0 0 0.7070313,0 L 5.6738281,4.1425781 a 0.50005,0.50005 0 0 0 0,-0.7070312 l -1.3769531,-1.375 0.052734,-0.052734 C 4.4005796,2.0017687 4.4601234,1.9902344 4.5,1.9902344 Z m 6.980469,0.2167969 2.5,2.4999999 -0.189453,2.0175782 -3.414063,-3.4140625 z"
    transform="matrix(64,0,0,64,0,0)" />
</svg>