<svg xmlns="http://www.w3.org/2000/svg" width="1024px" height="1024px" viewBox="0 0 1024 1024">
  <path
    d="M 576,124.48932 H 443.4719 C 408.12424,124.48932 384,156.65234 384,192 h 256 c 0,-35.34766 -28.65234,-67.51068 -64,-67.51068 z M 320,192 C 320,121.30859 377.30859,64 448,64 h 128 c 70.69531,0 128,57.30859 128,128 h 128 c 35.34766,0 64,28.65234 64,64 v 128 h -64 v 448 c 0,70.69531 -57.30469,128 -128,128 H 320 C 249.30859,960 192,902.69531 192,832 V 384 H 128 V 256 c 0,-35.34766 28.65234,-64 64,-64 z m 384,64 H 192 v 64 h 640 v -64 z m 64,128 H 256 l 10.5503,448 c 0.8322,35.33786 18.10204,49.10545 53.4497,49.10545 h 384 c 35.34766,0 64,-13.75779 64,-49.10545 z m -352,64 c -17.67188,0 -32,14.32812 -32,32 v 256 c 0,17.67187 14.32812,32 32,32 17.67187,0 32,-14.32813 32,-32 V 480 c 0,-17.67188 -14.32813,-32 -32,-32 z m 160,32 c 0,-17.67188 14.32812,-32 32,-32 17.67187,0 32,14.32812 32,32 v 256 c 0,17.67187 -14.32813,32 -32,32 -17.67188,0 -32,-14.32813 -32,-32 z" />
</svg>