<svg xmlns="http://www.w3.org/2000/svg" width="1024px" height="1024px" viewBox="0 0 1024 1024">
  <path
    d="M 384,64 C 384,28.652344 412.65234,0 448,0 h 128 c 35.34766,0 64,28.652344 64,64 v 128 c 0,35.34766 -28.65234,64 -64,64 h -31.99609 v 64 H 640 c 35.34766,0 64,28.65234 64,64 v 256 c 0,22.46875 -11.57813,42.23437 -29.09375,53.65234 L 749.25391,768 H 832 c 35.34766,0 64,28.65234 64,64 v 128 c 0,35.34766 -28.65234,64 -64,64 H 704 c -35.34766,0 -64,-28.65234 -64,-64 V 832 c 0,-22.46875 11.57812,-42.23438 29.09375,-53.65234 L 594.74609,704 H 429.25781 l -74.35156,74.34766 C 372.42187,789.76562 384,809.53125 384,832 v 128 c 0,35.34766 -28.65234,64 -64,64 H 192 c -35.34766,0 -64,-28.65234 -64,-64 V 832 c 0,-35.34766 28.65234,-64 64,-64 h 82.74609 l 74.34766,-74.34766 C 331.57812,682.23437 320,662.46875 320,640 V 384 c 0,-35.34766 28.65234,-64 64,-64 h 96.00391 V 256 H 448 c -35.34766,0 -64,-28.65234 -64,-64 z m 64,0 V 192 H 576 V 64 Z M 640,384 H 384 V 640 H 640 Z M 832,832 H 704 v 128 h 128 z m -640,0 V 960 H 320 V 832 Z" />
</svg>