<svg xmlns="http://www.w3.org/2000/svg" width="1024px" height="1024px" viewBox="0 0 1024 1024">
  <path
    d="m 384,64 c -35.34766,0 -64,28.652344 -64,64 v 256 c 0,35.34766 28.65234,64 64,64 h 34.53906 L 239.33984,704 H 192 c -35.34766,0 -64,28.65234 -64,64 v 128 c 0,35.34766 28.65234,64 64,64 h 128 c 35.34766,0 64,-28.65234 64,-64 V 768 c 0,-35.34766 -28.65234,-64 -64,-64 h -2.53906 L 496.66016,448 h 30.67968 L 706.53906,704 H 704 c -35.34766,0 -64,28.65234 -64,64 v 128 c 0,35.34766 28.65234,64 64,64 h 128 c 35.34766,0 64,-28.65234 64,-64 V 768 c 0,-35.34766 -28.65234,-64 -64,-64 H 784.66016 L 605.46094,448 H 640 c 35.34766,0 64,-28.65234 64,-64 V 128 C 704,92.652344 675.34766,64 640,64 Z M 640,384 H 384 V 128 h 256 z m 127.60937,384 c 0.27735,0.008 0.5586,0.008 0.83985,0 H 832 V 896 H 704 V 768 Z m -512.05859,0 c 0.28125,0.008 0.5625,0.008 0.83984,0 H 320 V 896 H 192 V 768 Z" />
</svg>