<svg xmlns="http://www.w3.org/2000/svg" width="1024px" height="1024px" viewBox="0 0 1024 1024">
  <path
    d="M 239.33984,320 H 192 c -35.34766,0 -64,-28.65234 -64,-64 V 128 c 0,-35.347656 28.65234,-64 64,-64 h 128 c 35.34766,0 64,28.652344 64,64 v 128 c 0,35.34766 -28.65234,64 -64,64 h -2.53906 l 179.19922,256 h 30.67968 L 706.53906,320 H 704 c -35.34766,0 -64,-28.65234 -64,-64 V 128 c 0,-35.347656 28.65234,-64 64,-64 h 128 c 35.34766,0 64,28.652344 64,64 v 128 c 0,35.34766 -28.65234,64 -64,64 H 784.66016 L 605.46094,576 H 640 c 35.34766,0 64,28.65234 64,64 v 256 c 0,35.34766 -28.65234,64 -64,64 H 384 c -35.34766,0 -64,-28.65234 -64,-64 V 640 c 0,-35.34766 28.65234,-64 64,-64 h 34.53906 z M 192,128 V 256 H 320 V 128 Z M 384,640 V 896 H 640 V 640 Z M 832,256 V 128 H 704 v 128 z" />
</svg>