<svg xmlns="http://www.w3.org/2000/svg" width="1024px" height="1024px" viewBox="0 0 1024 1024">
  <path
    d="m 14,1.0332031 c -0.841476,0 -1.682515,0.4040858 -2.146484,1.2109375 L 0.33398438,22.275391 C -0.59397489,23.888954 0.6181534,26 2.4804688,26 H 25.519531 c 1.862316,0 3.074629,-2.111028 2.146485,-3.724609 L 16.146484,2.2441406 C 15.682515,1.4372889 14.841476,1.0332031 14,1.0332031 Z m 0,1.9335938 c 0.154114,0 0.309154,0.091 0.414063,0.2734375 L 25.933594,23.273437 C 26.14342,23.63822 25.93273,24 25.519531,24 H 2.4804688 C 2.0672701,24 1.8566095,23.638238 2.0664063,23.273437 L 13.585938,3.2402344 C 13.690846,3.0577971 13.845886,2.9667969 14,2.9667969 Z"
    transform="matrix(36.571429,0,0,36.571429,0,0)" />
  <path
    d="M 548.570312 329.144531 C 548.570312 308.945312 532.199219 292.570312 512 292.570312 C 491.800781 292.570312 475.429688 308.945312 475.429688 329.144531 L 475.429688 548.570312 C 475.429688 568.769531 491.800781 585.144531 512 585.144531 C 532.199219 585.144531 548.570312 568.769531 548.570312 548.570312 Z M 548.570312 329.144531 " />
  <path
    d="M 512 804.570312 C 542.296875 804.570312 566.855469 780.011719 566.855469 749.714844 C 566.855469 719.417969 542.296875 694.855469 512 694.855469 C 481.703125 694.855469 457.144531 719.417969 457.144531 749.714844 C 457.144531 780.011719 481.703125 804.570312 512 804.570312 Z M 512 804.570312 " />
</svg>